<svg width="800" height="220" xmlns="http://www.w3.org/2000/svg">
  <defs>
    <linearGradient id="rectGradientM8" x1="0%" y1="0%" x2="0%" y2="100%">
      <stop offset="0%" style="stop-color:#e8e8e8;stop-opacity:1" />
      <stop offset="25%" style="stop-color:#c0c0c0;stop-opacity:1" />
      <stop offset="50%" style="stop-color:#a8a8a8;stop-opacity:1" />
      <stop offset="75%" style="stop-color:#c0c0c0;stop-opacity:1" />
      <stop offset="100%" style="stop-color:#909090;stop-opacity:1" />
    </linearGradient>
    <linearGradient id="threadGradientM8" x1="0%" y1="0%" x2="0%" y2="100%">
      <stop offset="0%" style="stop-color:#d0d0d0;stop-opacity:1" />
      <stop offset="25%" style="stop-color:#b8b8b8;stop-opacity:1" />
      <stop offset="50%" style="stop-color:#989898;stop-opacity:1" />
      <stop offset="75%" style="stop-color:#b0b0b0;stop-opacity:1" />
      <stop offset="100%" style="stop-color:#808080;stop-opacity:1" />
    </linearGradient>
  </defs>

  <!-- Rectangular unthreaded part -->
  <g fill="url(#rectGradientM8)" stroke="#000000" stroke-width="2">
    <rect x="5" y="66.67" width="130" height="66.66" rx="2"/>
  </g>

  <!-- Threaded part M8x1.25 -->
  <g fill="url(#threadGradientM8)" stroke="#000000" stroke-width="1.2">
    <path d="
      M135,100
      L142.8125,66.67 L150.625,91.67
      L158.4375,66.67 L166.25,91.67
      L174.0625,66.67 L181.875,91.67
      L189.6875,66.67 L197.5,91.67
      L205.3125,66.67 L213.125,91.67
      L220.9375,66.67 L228.75,91.67
      L236.5625,66.67 L244.375,91.67
      L252.1875,66.67 L260,91.67
      L267.8125,66.67 L275.625,91.67
      L283.4375,66.67 L291.25,91.67
      L299.0625,66.67 L306.875,91.67
      L314.6875,66.67 L322.5,91.67
      L330.3125,66.67 L338.125,91.67
      L345.9375,66.67 L353.75,91.67
      L361.5625,66.67 L369.375,91.67
      L377.1875,66.67 L385,91.67
      L392.8125,66.67 L400.625,91.67
      L408.4375,66.67 L416.25,91.67
      L424.0625,66.67 L431.875,91.67
      L439.6875,66.67 L447.5,91.67
      L455.3125,66.67 L463.125,91.67
      L470.9375,66.67 L478.75,91.67
      L486.5625,66.67 L494.375,91.67
      L502.1875,66.67 L510,91.67
      L517.8125,66.67 L525.625,91.67
      L533.4375,66.67 L541.25,91.67
      L549.0625,66.67 L556.875,91.67
      L564.6875,66.67 L572.5,91.67
      L580.3125,66.67 L588.125,91.67
      L595.9375,66.67 L603.75,91.67
      L611.5625,66.67 L619.375,91.67
      L627.1875,66.67 L635,91.67
      L642.8125,66.67 L650.625,91.67
      L658.4375,66.67 L666.25,91.67
      L674.0625,66.67 L681.875,91.67
      L689.6875,66.67 L697.5,91.67
      L705.3125,66.67 L713.125,91.67
      L720.9375,66.67 L728.75,91.67
      L728.75,100
      L720.9375,133.33 L713.125,108.33
      L705.3125,133.33 L697.5,108.33
      L689.6875,133.33 L681.875,108.33
      L674.0625,133.33 L666.25,108.33
      L658.4375,133.33 L650.625,108.33
      L642.8125,133.33 L635,108.33
      L627.1875,133.33 L619.375,108.33
      L611.5625,133.33 L603.75,108.33
      L595.9375,133.33 L588.125,108.33
      L580.3125,133.33 L572.5,108.33
      L564.6875,133.33 L556.875,108.33
      L549.0625,133.33 L541.25,108.33
      L533.4375,133.33 L525.625,108.33
      L517.8125,133.33 L510,108.33
      L502.1875,133.33 L494.375,108.33
      L486.5625,133.33 L478.75,108.33
      L470.9375,133.33 L463.125,108.33
      L455.3125,133.33 L447.5,108.33
      L439.6875,133.33 L431.875,108.33
      L424.0625,133.33 L416.25,108.33
      L408.4375,133.33 L400.625,108.33
      L392.8125,133.33 L385,108.33
      L377.1875,133.33 L369.375,108.33
      L361.5625,133.33 L353.75,108.33
      L345.9375,133.33 L338.125,108.33
      L330.3125,133.33 L322.5,108.33
      L314.6875,133.33 L306.875,108.33
      L299.0625,133.33 L291.25,108.33
      L283.4375,133.33 L275.625,108.33
      L267.8125,133.33 L260,108.33
      L252.1875,133.33 L244.375,108.33
      L236.5625,133.33 L228.75,108.33
      L220.9375,133.33 L213.125,108.33
      L205.3125,133.33 L197.5,108.33
      L189.6875,133.33 L181.875,108.33
      L174.0625,133.33 L166.25,108.33
      L158.4375,133.33 L150.625,108.33
      L142.8125,133.33 L135,108.33
      Z
    " stroke-linejoin="miter"/>
  </g>
</svg>